<svg width="606" height="140" viewBox="0 0 606 140" fill="#00a0f0" xmlns="http://www.w3.org/2000/svg">
<path d="M22.2085 42.7501C20.8209 41.9932 20.8182 40.0018 22.2037 39.2411L69.0406 13.5267C69.6384 13.1985 70.3622 13.1975 70.9608 13.5241L123.958 42.4315C124.6 42.7819 125 43.4554 125 44.1873V101.813C125 102.545 124.6 103.218 123.958 103.569L116.958 107.387C115.625 108.114 114 107.149 114 105.631V64.3877C114 62.8653 112.367 61.9011 111.034 62.6365L86.0338 76.4296C85.396 76.7815 85 77.4523 85 78.1808V122.813C85 123.545 84.6002 124.218 83.9577 124.569L76.9577 128.387C75.625 129.114 74 128.149 74 126.631V72.1873C74 71.4554 73.6002 70.7819 72.9577 70.4315L26.3408 45.0041C25.3385 44.4574 24.9965 43.184 25.5899 42.2087L29.4156 35.9212C29.7785 35.3248 30.4261 34.9608 31.1242 34.9608H44.103C46.1713 34.9608 46.8791 37.7165 45.0669 38.7132L44.1119 39.2385C42.7269 40.0002 42.7312 41.9918 44.1195 42.7475L84.0373 64.476C84.637 64.8024 85.3618 64.8004 85.9597 64.4705L110.808 50.7612C112.19 49.9986 112.185 48.0102 110.799 47.2542L70.9617 25.5246C70.3626 25.1978 69.6381 25.199 69.0401 25.5279L30.9599 46.4721C30.3619 46.801 29.6374 46.8022 29.0383 46.4754L22.2085 42.7501Z" />
<path d="M15 46.3691C15 44.851 16.625 43.8863 17.9577 44.6133L68.9577 72.4315C69.6002 72.7819 70 73.4554 70 74.1873V81.6309C70 83.149 68.375 84.1137 67.0423 83.3867L28.9577 62.6133C27.625 61.8863 26 62.851 26 64.3691V95.8127C26 96.5446 26.3998 97.2181 27.0423 97.5685L68.9577 120.431C69.6002 120.782 70 121.455 70 122.187V129.631C70 131.149 68.375 132.114 67.0423 131.387L16.0423 103.569C15.3998 103.218 15 102.545 15 101.813V46.3691Z" />
<path d="M64.6577 50.3758C64.2688 50.1536 64.0751 49.6997 64.1837 49.2651L69.0299 29.8806C69.2823 28.8706 70.7177 28.8706 70.9701 29.8806L77.4316 55.7266C77.6452 56.581 76.73 57.2743 75.9654 56.8373L64.6577 50.3758Z" />
<path d="M87.9316 93.3668C87.9296 93.8148 88.2258 94.2095 88.6565 94.3327L107.867 99.8281C108.868 100.114 109.586 98.8714 108.837 98.1478L89.6847 79.6289C89.0515 79.0168 87.9935 79.4627 87.9896 80.3434L87.9316 93.3668Z" />
<path d="M128 105L70.4578 139.724C70.1718 139.896 69.8184 139.915 69.516 139.773L4.54114 109.254C4.20789 109.098 3.9876 108.771 3.96773 108.403L0.032454 35.6004C0.0124841 35.231 0.19813 34.8807 0.515069 34.6898L43.5159 8.79155C43.8163 8.61063 44 8.28558 44 7.93491V1.61803C44 0.874652 44.7823 0.391156 45.4472 0.723607L64.3043 10.1521C65.0235 10.5118 65.0457 11.5302 64.3427 11.9207L12.5144 40.7142C12.1969 40.8906 12 41.2252 12 41.5884V104.401C12 104.77 12.2032 105.109 12.5286 105.283L69.5286 135.748C69.8232 135.905 70.1768 135.905 70.4714 135.748L128 105Z" />
<path d="M195.5 91.4062C195.875 92.5312 196.109 93.4219 196.203 94.0781C196.297 94.7344 196.172 95.2344 195.828 95.5781C195.484 95.8906 194.875 96.0781 194 96.1406C193.125 96.2344 191.922 96.2812 190.391 96.2812C188.797 96.2812 187.547 96.25 186.641 96.1875C185.766 96.1562 185.094 96.0781 184.625 95.9531C184.156 95.7969 183.828 95.5938 183.641 95.3438C183.453 95.0938 183.297 94.7656 183.172 94.3594L179.094 82.1719H156.312L152.469 94.0312C152.344 94.4688 152.172 94.8438 151.953 95.1562C151.766 95.4375 151.438 95.6719 150.969 95.8594C150.531 96.0156 149.891 96.125 149.047 96.1875C148.234 96.25 147.156 96.2812 145.812 96.2812C144.375 96.2812 143.25 96.2344 142.438 96.1406C141.625 96.0469 141.062 95.8281 140.75 95.4844C140.438 95.1094 140.328 94.5938 140.422 93.9375C140.516 93.2812 140.75 92.4062 141.125 91.3125L159.828 37.5C160.016 36.9688 160.234 36.5469 160.484 36.2344C160.734 35.8906 161.125 35.6406 161.656 35.4844C162.219 35.2969 162.984 35.1875 163.953 35.1562C164.922 35.0938 166.203 35.0625 167.797 35.0625C169.641 35.0625 171.109 35.0938 172.203 35.1562C173.297 35.1875 174.141 35.2969 174.734 35.4844C175.359 35.6406 175.797 35.8906 176.047 36.2344C176.328 36.5781 176.562 37.0469 176.75 37.6406L195.5 91.4062ZM167.656 46.9219H167.609L159.031 72.7031H176.234L167.656 46.9219ZM225.078 90.2812C225.078 91.6562 224.984 92.7188 224.797 93.4688C224.641 94.1875 224.422 94.7031 224.141 95.0156C223.859 95.2969 223.438 95.5625 222.875 95.8125C222.344 96.0312 221.703 96.2188 220.953 96.375C220.234 96.5625 219.438 96.7031 218.562 96.7969C217.719 96.8906 216.859 96.9375 215.984 96.9375C213.641 96.9375 211.609 96.6406 209.891 96.0469C208.172 95.4531 206.75 94.5469 205.625 93.3281C204.5 92.0781 203.672 90.5156 203.141 88.6406C202.609 86.7656 202.344 84.5469 202.344 81.9844V60.5625H197.328C196.734 60.5625 196.281 60.2031 195.969 59.4844C195.656 58.7344 195.5 57.5 195.5 55.7812C195.5 54.875 195.531 54.1094 195.594 53.4844C195.688 52.8594 195.812 52.375 195.969 52.0312C196.125 51.6562 196.312 51.3906 196.531 51.2344C196.781 51.0781 197.062 51 197.375 51H202.344V41.6719C202.344 41.3594 202.422 41.0781 202.578 40.8281C202.766 40.5781 203.078 40.375 203.516 40.2188C203.984 40.0312 204.594 39.9062 205.344 39.8438C206.125 39.75 207.078 39.7031 208.203 39.7031C209.359 39.7031 210.312 39.75 211.062 39.8438C211.844 39.9062 212.453 40.0312 212.891 40.2188C213.328 40.375 213.641 40.5781 213.828 40.8281C214.016 41.0781 214.109 41.3594 214.109 41.6719V51H223.203C223.516 51 223.781 51.0781 224 51.2344C224.25 51.3906 224.453 51.6562 224.609 52.0312C224.766 52.375 224.875 52.8594 224.938 53.4844C225.031 54.1094 225.078 54.875 225.078 55.7812C225.078 57.5 224.922 58.7344 224.609 59.4844C224.297 60.2031 223.844 60.5625 223.25 60.5625H214.109V80.2031C214.109 82.4844 214.469 84.2031 215.188 85.3594C215.906 86.4844 217.188 87.0469 219.031 87.0469C219.656 87.0469 220.219 87 220.719 86.9062C221.219 86.7812 221.656 86.6562 222.031 86.5312C222.438 86.375 222.766 86.25 223.016 86.1562C223.297 86.0312 223.547 85.9688 223.766 85.9688C223.953 85.9688 224.125 86.0312 224.281 86.1562C224.469 86.25 224.609 86.4688 224.703 86.8125C224.797 87.125 224.875 87.5625 224.938 88.125C225.031 88.6875 225.078 89.4062 225.078 90.2812ZM263.047 82.5938C263.047 84.9688 262.594 87.0625 261.688 88.875C260.812 90.6875 259.562 92.2031 257.938 93.4219C256.312 94.6406 254.391 95.5469 252.172 96.1406C249.953 96.7656 247.547 97.0781 244.953 97.0781C243.391 97.0781 241.891 96.9531 240.453 96.7031C239.047 96.4844 237.781 96.2031 236.656 95.8594C235.531 95.4844 234.594 95.1094 233.844 94.7344C233.094 94.3594 232.547 94.0156 232.203 93.7031C231.859 93.3594 231.594 92.8438 231.406 92.1562C231.219 91.4375 231.125 90.3906 231.125 89.0156C231.125 88.1094 231.156 87.3906 231.219 86.8594C231.281 86.2969 231.375 85.8594 231.5 85.5469C231.625 85.2031 231.781 84.9844 231.969 84.8906C232.156 84.7656 232.391 84.7031 232.672 84.7031C233.016 84.7031 233.516 84.9062 234.172 85.3125C234.859 85.6875 235.703 86.1094 236.703 86.5781C237.703 87.0469 238.859 87.4844 240.172 87.8906C241.516 88.2969 243.031 88.5 244.719 88.5C245.781 88.5 246.719 88.3906 247.531 88.1719C248.375 87.9531 249.094 87.6406 249.688 87.2344C250.312 86.8281 250.781 86.3125 251.094 85.6875C251.406 85.0625 251.562 84.3438 251.562 83.5312C251.562 82.5938 251.266 81.7969 250.672 81.1406C250.109 80.4531 249.344 79.8594 248.375 79.3594C247.438 78.8594 246.359 78.3906 245.141 77.9531C243.953 77.5156 242.719 77.0312 241.438 76.5C240.188 75.9688 238.953 75.3594 237.734 74.6719C236.547 73.9844 235.469 73.1406 234.5 72.1406C233.562 71.1406 232.797 69.9375 232.203 68.5312C231.641 67.125 231.359 65.4375 231.359 63.4688C231.359 61.4688 231.75 59.6406 232.531 57.9844C233.312 56.2969 234.438 54.8594 235.906 53.6719C237.375 52.4844 239.156 51.5625 241.25 50.9062C243.375 50.25 245.75 49.9219 248.375 49.9219C249.688 49.9219 250.953 50.0156 252.172 50.2031C253.422 50.3906 254.547 50.625 255.547 50.9062C256.547 51.1875 257.391 51.5 258.078 51.8438C258.766 52.1562 259.25 52.4375 259.531 52.6875C259.844 52.9062 260.062 53.1406 260.188 53.3906C260.312 53.6094 260.406 53.8906 260.469 54.2344C260.531 54.5469 260.578 54.9531 260.609 55.4531C260.672 55.9219 260.703 56.5156 260.703 57.2344C260.703 58.0781 260.672 58.7656 260.609 59.2969C260.578 59.8281 260.5 60.25 260.375 60.5625C260.281 60.875 260.141 61.0938 259.953 61.2188C259.766 61.3125 259.547 61.3594 259.297 61.3594C259.016 61.3594 258.578 61.2031 257.984 60.8906C257.391 60.5469 256.641 60.1875 255.734 59.8125C254.859 59.4375 253.828 59.0938 252.641 58.7812C251.484 58.4375 250.156 58.2656 248.656 58.2656C247.594 58.2656 246.672 58.375 245.891 58.5938C245.109 58.8125 244.469 59.125 243.969 59.5312C243.469 59.9375 243.094 60.4219 242.844 60.9844C242.594 61.5156 242.469 62.0938 242.469 62.7188C242.469 63.6875 242.766 64.5 243.359 65.1562C243.953 65.8125 244.734 66.3906 245.703 66.8906C246.672 67.3906 247.766 67.8594 248.984 68.2969C250.234 68.7344 251.484 69.2188 252.734 69.75C254.016 70.25 255.266 70.8438 256.484 71.5312C257.734 72.2188 258.844 73.0625 259.812 74.0625C260.781 75.0625 261.562 76.2656 262.156 77.6719C262.75 79.0469 263.047 80.6875 263.047 82.5938ZM311.609 94.4062C311.609 94.7188 311.531 95 311.375 95.25C311.219 95.4688 310.938 95.6562 310.531 95.8125C310.156 95.9688 309.641 96.0781 308.984 96.1406C308.359 96.2344 307.562 96.2812 306.594 96.2812C305.562 96.2812 304.719 96.2344 304.062 96.1406C303.438 96.0781 302.938 95.9688 302.562 95.8125C302.188 95.6562 301.922 95.4688 301.766 95.25C301.609 95 301.531 94.7188 301.531 94.4062V89.5781C299.219 92.0781 296.859 93.9531 294.453 95.2031C292.078 96.4531 289.609 97.0781 287.047 97.0781C284.172 97.0781 281.75 96.6094 279.781 95.6719C277.844 94.7344 276.266 93.4531 275.047 91.8281C273.859 90.2031 273 88.3281 272.469 86.2031C271.969 84.0469 271.719 81.375 271.719 78.1875V52.5938C271.719 52.2812 271.797 52.0156 271.953 51.7969C272.141 51.5469 272.453 51.3438 272.891 51.1875C273.359 51.0312 273.969 50.9219 274.719 50.8594C275.5 50.7656 276.453 50.7188 277.578 50.7188C278.734 50.7188 279.688 50.7656 280.438 50.8594C281.188 50.9219 281.781 51.0312 282.219 51.1875C282.688 51.3438 283.016 51.5469 283.203 51.7969C283.391 52.0156 283.484 52.2812 283.484 52.5938V76.2188C283.484 78.4062 283.625 80.0781 283.906 81.2344C284.188 82.3906 284.609 83.3906 285.172 84.2344C285.766 85.0469 286.5 85.6875 287.375 86.1562C288.281 86.5938 289.328 86.8125 290.516 86.8125C292.016 86.8125 293.516 86.2656 295.016 85.1719C296.547 84.0781 298.172 82.4844 299.891 80.3906V52.5938C299.891 52.2812 299.969 52.0156 300.125 51.7969C300.312 51.5469 300.625 51.3438 301.062 51.1875C301.531 51.0312 302.141 50.9219 302.891 50.8594C303.641 50.7656 304.594 50.7188 305.75 50.7188C306.906 50.7188 307.859 50.7656 308.609 50.8594C309.359 50.9219 309.953 51.0312 310.391 51.1875C310.828 51.3438 311.141 51.5469 311.328 51.7969C311.516 52.0156 311.609 52.2812 311.609 52.5938V94.4062ZM365.797 73.0781C365.797 76.6406 365.328 79.8906 364.391 82.8281C363.453 85.7656 362.031 88.2969 360.125 90.4219C358.219 92.5469 355.828 94.1875 352.953 95.3438C350.078 96.5 346.719 97.0781 342.875 97.0781C339.156 97.0781 335.922 96.5625 333.172 95.5312C330.422 94.5 328.141 93 326.328 91.0312C324.516 89.0625 323.172 86.6406 322.297 83.7656C321.422 80.8906 320.984 77.6094 320.984 73.9219C320.984 70.3594 321.453 67.1094 322.391 64.1719C323.359 61.2031 324.797 58.6719 326.703 56.5781C328.609 54.4531 330.984 52.8125 333.828 51.6562C336.703 50.5 340.062 49.9219 343.906 49.9219C347.656 49.9219 350.906 50.4375 353.656 51.4688C356.406 52.4688 358.672 53.9531 360.453 55.9219C362.266 57.8906 363.609 60.3125 364.484 63.1875C365.359 66.0625 365.797 69.3594 365.797 73.0781ZM353.656 73.5469C353.656 71.4844 353.484 69.5938 353.141 67.875C352.828 66.125 352.281 64.6094 351.5 63.3281C350.719 62.0469 349.672 61.0469 348.359 60.3281C347.078 59.6094 345.453 59.25 343.484 59.25C341.734 59.25 340.203 59.5781 338.891 60.2344C337.578 60.8594 336.5 61.7969 335.656 63.0469C334.812 64.2656 334.172 65.75 333.734 67.5C333.328 69.2188 333.125 71.1875 333.125 73.4062C333.125 75.4688 333.297 77.375 333.641 79.125C333.984 80.8438 334.531 82.3438 335.281 83.625C336.062 84.9062 337.109 85.9062 338.422 86.625C339.734 87.3125 341.359 87.6562 343.297 87.6562C345.078 87.6562 346.625 87.3438 347.938 86.7188C349.25 86.0625 350.328 85.125 351.172 83.9062C352.016 82.6875 352.641 81.2188 353.047 79.5C353.453 77.75 353.656 75.7656 353.656 73.5469ZM417.828 86.8125C417.828 87.5938 417.797 88.2656 417.734 88.8281C417.703 89.3594 417.641 89.8281 417.547 90.2344C417.453 90.6094 417.328 90.9375 417.172 91.2188C417.016 91.5 416.766 91.8281 416.422 92.2031C416.078 92.5469 415.406 93 414.406 93.5625C413.438 94.125 412.234 94.6719 410.797 95.2031C409.391 95.7031 407.766 96.125 405.922 96.4688C404.109 96.8125 402.141 96.9844 400.016 96.9844C395.859 96.9844 392.109 96.3438 388.766 95.0625C385.422 93.7812 382.578 91.875 380.234 89.3438C377.891 86.7812 376.094 83.5938 374.844 79.7812C373.594 75.9688 372.969 71.5312 372.969 66.4688C372.969 61.3125 373.656 56.7344 375.031 52.7344C376.406 48.7344 378.328 45.375 380.797 42.6562C383.266 39.9375 386.219 37.875 389.656 36.4688C393.125 35.0625 396.938 34.3594 401.094 34.3594C402.781 34.3594 404.406 34.5 405.969 34.7812C407.531 35.0625 408.969 35.4375 410.281 35.9062C411.625 36.3438 412.828 36.8594 413.891 37.4531C414.953 38.0469 415.688 38.5625 416.094 39C416.531 39.4062 416.828 39.75 416.984 40.0312C417.141 40.3125 417.266 40.6719 417.359 41.1094C417.453 41.5469 417.516 42.0625 417.547 42.6562C417.609 43.25 417.641 43.9844 417.641 44.8594C417.641 45.7969 417.609 46.5938 417.547 47.25C417.484 47.9062 417.375 48.4375 417.219 48.8438C417.062 49.25 416.875 49.5469 416.656 49.7344C416.438 49.9219 416.188 50.0156 415.906 50.0156C415.438 50.0156 414.844 49.75 414.125 49.2188C413.406 48.6562 412.469 48.0469 411.312 47.3906C410.188 46.7031 408.828 46.0938 407.234 45.5625C405.672 45 403.797 44.7188 401.609 44.7188C399.203 44.7188 397.047 45.2188 395.141 46.2188C393.266 47.1875 391.656 48.5938 390.312 50.4375C389 52.25 388 54.4531 387.312 57.0469C386.625 59.6406 386.281 62.5625 386.281 65.8125C386.281 69.375 386.641 72.4688 387.359 75.0938C388.109 77.6875 389.156 79.8281 390.5 81.5156C391.875 83.2031 393.516 84.4688 395.422 85.3125C397.359 86.125 399.531 86.5312 401.938 86.5312C404.125 86.5312 406.016 86.2812 407.609 85.7812C409.203 85.25 410.562 84.6719 411.688 84.0469C412.844 83.4219 413.781 82.8594 414.5 82.3594C415.25 81.8594 415.828 81.6094 416.234 81.6094C416.547 81.6094 416.797 81.6719 416.984 81.7969C417.172 81.9219 417.328 82.1719 417.453 82.5469C417.578 82.9219 417.672 83.4531 417.734 84.1406C417.797 84.7969 417.828 85.6875 417.828 86.8125ZM468.266 73.0781C468.266 76.6406 467.797 79.8906 466.859 82.8281C465.922 85.7656 464.5 88.2969 462.594 90.4219C460.688 92.5469 458.297 94.1875 455.422 95.3438C452.547 96.5 449.188 97.0781 445.344 97.0781C441.625 97.0781 438.391 96.5625 435.641 95.5312C432.891 94.5 430.609 93 428.797 91.0312C426.984 89.0625 425.641 86.6406 424.766 83.7656C423.891 80.8906 423.453 77.6094 423.453 73.9219C423.453 70.3594 423.922 67.1094 424.859 64.1719C425.828 61.2031 427.266 58.6719 429.172 56.5781C431.078 54.4531 433.453 52.8125 436.297 51.6562C439.172 50.5 442.531 49.9219 446.375 49.9219C450.125 49.9219 453.375 50.4375 456.125 51.4688C458.875 52.4688 461.141 53.9531 462.922 55.9219C464.734 57.8906 466.078 60.3125 466.953 63.1875C467.828 66.0625 468.266 69.3594 468.266 73.0781ZM456.125 73.5469C456.125 71.4844 455.953 69.5938 455.609 67.875C455.297 66.125 454.75 64.6094 453.969 63.3281C453.188 62.0469 452.141 61.0469 450.828 60.3281C449.547 59.6094 447.922 59.25 445.953 59.25C444.203 59.25 442.672 59.5781 441.359 60.2344C440.047 60.8594 438.969 61.7969 438.125 63.0469C437.281 64.2656 436.641 65.75 436.203 67.5C435.797 69.2188 435.594 71.1875 435.594 73.4062C435.594 75.4688 435.766 77.375 436.109 79.125C436.453 80.8438 437 82.3438 437.75 83.625C438.531 84.9062 439.578 85.9062 440.891 86.625C442.203 87.3125 443.828 87.6562 445.766 87.6562C447.547 87.6562 449.094 87.3438 450.406 86.7188C451.719 86.0625 452.797 85.125 453.641 83.9062C454.484 82.6875 455.109 81.2188 455.516 79.5C455.922 77.75 456.125 75.7656 456.125 73.5469ZM517.297 94.4062C517.297 94.75 517.219 95.0469 517.062 95.2969C516.906 95.5156 516.641 95.7031 516.266 95.8594C515.891 96.0156 515.375 96.125 514.719 96.1875C514.094 96.25 513.312 96.2812 512.375 96.2812C511.375 96.2812 510.562 96.25 509.938 96.1875C509.312 96.125 508.797 96.0156 508.391 95.8594C508.016 95.7031 507.734 95.5156 507.547 95.2969C507.391 95.0469 507.312 94.75 507.312 94.4062V89.7656C505.156 92.0781 502.891 93.875 500.516 95.1562C498.172 96.4375 495.562 97.0781 492.688 97.0781C489.5 97.0781 486.797 96.4688 484.578 95.25C482.391 94 480.594 92.3281 479.188 90.2344C477.812 88.1406 476.812 85.7031 476.188 82.9219C475.562 80.1094 475.25 77.1562 475.25 74.0625C475.25 70.3438 475.641 67 476.422 64.0312C477.234 61.0625 478.406 58.5312 479.938 56.4375C481.469 54.3438 483.375 52.7344 485.656 51.6094C487.938 50.4844 490.562 49.9219 493.531 49.9219C495.875 49.9219 498 50.4062 499.906 51.375C501.812 52.3125 503.703 53.7031 505.578 55.5469V32.9062C505.578 32.5938 505.656 32.3125 505.812 32.0625C506 31.8125 506.312 31.6094 506.75 31.4531C507.219 31.2656 507.828 31.125 508.578 31.0312C509.328 30.9375 510.281 30.8906 511.438 30.8906C512.594 30.8906 513.547 30.9375 514.297 31.0312C515.047 31.125 515.641 31.2656 516.078 31.4531C516.516 31.6094 516.828 31.8125 517.016 32.0625C517.203 32.3125 517.297 32.5938 517.297 32.9062V94.4062ZM505.578 66.4688C503.891 64.3438 502.266 62.7188 500.703 61.5938C499.172 60.4688 497.562 59.9062 495.875 59.9062C494.344 59.9062 493.016 60.2969 491.891 61.0781C490.797 61.8281 489.906 62.8438 489.219 64.125C488.562 65.4062 488.062 66.8438 487.719 68.4375C487.406 70 487.25 71.6094 487.25 73.2656C487.25 75.0156 487.391 76.7188 487.672 78.375C487.953 80.0312 488.406 81.5156 489.031 82.8281C489.688 84.1094 490.547 85.1406 491.609 85.9219C492.672 86.7031 494.016 87.0938 495.641 87.0938C496.453 87.0938 497.234 86.9844 497.984 86.7656C498.766 86.5156 499.547 86.125 500.328 85.5938C501.141 85.0625 501.969 84.375 502.812 83.5312C503.656 82.6562 504.578 81.5938 505.578 80.3438V66.4688ZM567.828 72.2812C567.828 73.7188 567.5 74.7812 566.844 75.4688C566.219 76.1562 565.344 76.5 564.219 76.5H538.766C538.766 78.2812 538.969 79.9062 539.375 81.375C539.812 82.8125 540.484 84.0469 541.391 85.0781C542.328 86.0781 543.516 86.8438 544.953 87.375C546.422 87.9062 548.172 88.1719 550.203 88.1719C552.266 88.1719 554.078 88.0312 555.641 87.75C557.203 87.4375 558.547 87.1094 559.672 86.7656C560.828 86.3906 561.781 86.0625 562.531 85.7812C563.281 85.4688 563.891 85.3125 564.359 85.3125C564.641 85.3125 564.875 85.375 565.062 85.5C565.25 85.5938 565.406 85.7812 565.531 86.0625C565.656 86.3438 565.734 86.75 565.766 87.2812C565.828 87.7812 565.859 88.4219 565.859 89.2031C565.859 89.8906 565.844 90.4844 565.812 90.9844C565.781 91.4531 565.734 91.8594 565.672 92.2031C565.609 92.5469 565.516 92.8438 565.391 93.0938C565.266 93.3125 565.094 93.5312 564.875 93.75C564.688 93.9688 564.141 94.2656 563.234 94.6406C562.328 95.0156 561.172 95.3906 559.766 95.7656C558.359 96.1094 556.75 96.4062 554.938 96.6562C553.125 96.9375 551.188 97.0781 549.125 97.0781C545.406 97.0781 542.141 96.6094 539.328 95.6719C536.547 94.7344 534.219 93.3125 532.344 91.4062C530.469 89.5 529.062 87.0938 528.125 84.1875C527.219 81.2812 526.766 77.875 526.766 73.9688C526.766 70.25 527.25 66.9062 528.219 63.9375C529.188 60.9375 530.594 58.4062 532.438 56.3438C534.281 54.25 536.516 52.6562 539.141 51.5625C541.797 50.4688 544.781 49.9219 548.094 49.9219C551.594 49.9219 554.578 50.4375 557.047 51.4688C559.547 52.5 561.594 53.9375 563.188 55.7812C564.781 57.5938 565.953 59.75 566.703 62.25C567.453 64.75 567.828 67.4688 567.828 70.4062V72.2812ZM556.391 68.9062C556.484 65.5938 555.812 63 554.375 61.125C552.969 59.2188 550.781 58.2656 547.812 58.2656C546.312 58.2656 545 58.5469 543.875 59.1094C542.781 59.6719 541.859 60.4375 541.109 61.4062C540.391 62.3438 539.828 63.4688 539.422 64.7812C539.047 66.0625 538.828 67.4375 538.766 68.9062H556.391ZM604.438 56.4844C604.438 57.6094 604.406 58.5312 604.344 59.25C604.281 59.9688 604.188 60.5312 604.062 60.9375C603.938 61.3438 603.766 61.625 603.547 61.7812C603.359 61.9375 603.109 62.0156 602.797 62.0156C602.547 62.0156 602.266 61.9688 601.953 61.875C601.641 61.75 601.281 61.625 600.875 61.5C600.5 61.375 600.078 61.2656 599.609 61.1719C599.141 61.0469 598.625 60.9844 598.062 60.9844C597.406 60.9844 596.75 61.125 596.094 61.4062C595.438 61.6562 594.75 62.0625 594.031 62.625C593.344 63.1875 592.609 63.9375 591.828 64.875C591.078 65.8125 590.266 66.9688 589.391 68.3438V94.4062C589.391 94.7188 589.297 95 589.109 95.25C588.922 95.4688 588.594 95.6562 588.125 95.8125C587.688 95.9688 587.094 96.0781 586.344 96.1406C585.594 96.2344 584.641 96.2812 583.484 96.2812C582.328 96.2812 581.375 96.2344 580.625 96.1406C579.875 96.0781 579.266 95.9688 578.797 95.8125C578.359 95.6562 578.047 95.4688 577.859 95.25C577.672 95 577.578 94.7188 577.578 94.4062V52.5938C577.578 52.2812 577.656 52.0156 577.812 51.7969C577.969 51.5469 578.25 51.3438 578.656 51.1875C579.062 51.0312 579.578 50.9219 580.203 50.8594C580.859 50.7656 581.672 50.7188 582.641 50.7188C583.641 50.7188 584.469 50.7656 585.125 50.8594C585.781 50.9219 586.281 51.0312 586.625 51.1875C587 51.3438 587.266 51.5469 587.422 51.7969C587.578 52.0156 587.656 52.2812 587.656 52.5938V57.7969C588.75 56.2344 589.781 54.9531 590.75 53.9531C591.719 52.9219 592.641 52.1094 593.516 51.5156C594.391 50.9219 595.266 50.5156 596.141 50.2969C597.016 50.0469 597.891 49.9219 598.766 49.9219C599.172 49.9219 599.609 49.9531 600.078 50.0156C600.547 50.0469 601.031 50.125 601.531 50.25C602.031 50.3438 602.469 50.4688 602.844 50.625C603.219 50.75 603.484 50.8906 603.641 51.0469C603.828 51.2031 603.953 51.375 604.016 51.5625C604.109 51.75 604.188 52.0156 604.25 52.3594C604.312 52.6719 604.359 53.1562 604.391 53.8125C604.422 54.4688 604.438 55.3594 604.438 56.4844Z" />
</svg>
