<svg width="128" height="140" viewBox="0 0 128 140" fill="#00a0f0" xmlns="http://www.w3.org/2000/svg">
<path d="M22.2085 42.7501C20.8209 41.9932 20.8182 40.0018 22.2037 39.2411L69.0406 13.5267C69.6384 13.1985 70.3622 13.1975 70.9608 13.5241L123.958 42.4315C124.6 42.7819 125 43.4554 125 44.1873V101.813C125 102.545 124.6 103.218 123.958 103.569L116.958 107.387C115.625 108.114 114 107.149 114 105.631V64.3877C114 62.8653 112.367 61.9011 111.034 62.6365L86.0338 76.4296C85.396 76.7815 85 77.4523 85 78.1808V122.813C85 123.545 84.6002 124.218 83.9577 124.569L76.9577 128.387C75.625 129.114 74 128.149 74 126.631V72.1873C74 71.4554 73.6002 70.7819 72.9577 70.4315L26.3408 45.0041C25.3385 44.4574 24.9965 43.184 25.5899 42.2087L29.4156 35.9212C29.7785 35.3248 30.4261 34.9608 31.1242 34.9608H44.103C46.1713 34.9608 46.8791 37.7165 45.0669 38.7132L44.1119 39.2385C42.7269 40.0002 42.7312 41.9918 44.1195 42.7475L84.0373 64.476C84.637 64.8024 85.3618 64.8004 85.9597 64.4705L110.808 50.7612C112.19 49.9986 112.185 48.0102 110.799 47.2542L70.9617 25.5246C70.3626 25.1978 69.6381 25.199 69.0401 25.5279L30.9599 46.4721C30.3619 46.801 29.6374 46.8022 29.0383 46.4754L22.2085 42.7501Z" />
<path d="M15 46.3691C15 44.851 16.625 43.8863 17.9577 44.6133L68.9577 72.4315C69.6002 72.7819 70 73.4554 70 74.1873V81.6309C70 83.149 68.375 84.1137 67.0423 83.3867L28.9577 62.6133C27.625 61.8863 26 62.851 26 64.3691V95.8127C26 96.5446 26.3998 97.2181 27.0423 97.5685L68.9577 120.431C69.6002 120.782 70 121.455 70 122.187V129.631C70 131.149 68.375 132.114 67.0423 131.387L16.0423 103.569C15.3998 103.218 15 102.545 15 101.813V46.3691Z" />
<path d="M64.6577 50.3758C64.2688 50.1536 64.0751 49.6997 64.1837 49.2651L69.0299 29.8806C69.2823 28.8706 70.7177 28.8706 70.9701 29.8806L77.4316 55.7266C77.6452 56.581 76.73 57.2743 75.9654 56.8373L64.6577 50.3758Z" />
<path d="M87.9316 93.3668C87.9296 93.8148 88.2258 94.2095 88.6565 94.3327L107.867 99.8281C108.868 100.114 109.586 98.8714 108.837 98.1478L89.6847 79.6289C89.0515 79.0168 87.9935 79.4627 87.9896 80.3434L87.9316 93.3668Z" />
<path d="M128 105L70.4578 139.724C70.1718 139.896 69.8184 139.915 69.516 139.773L4.54114 109.254C4.20789 109.098 3.9876 108.771 3.96773 108.403L0.032454 35.6004C0.0124841 35.231 0.19813 34.8807 0.515069 34.6898L43.5159 8.79155C43.8163 8.61063 44 8.28558 44 7.93491V1.61803C44 0.874652 44.7823 0.391156 45.4472 0.723607L64.3043 10.1521C65.0235 10.5118 65.0457 11.5302 64.3427 11.9207L12.5144 40.7142C12.1969 40.8906 12 41.2252 12 41.5884V104.401C12 104.77 12.2032 105.109 12.5286 105.283L69.5286 135.748C69.8232 135.905 70.1768 135.905 70.4714 135.748L128 105Z" />
</svg>
